<mxfile host="Electron" modified="2024-05-18T03:57:55.383Z" agent="Mozilla/5.0 (Macintosh; Intel Mac OS X 10_15_7) AppleWebKit/537.36 (KHTML, like Gecko) draw.io/23.1.5 Chrome/120.0.6099.109 Electron/28.1.0 Safari/537.36" etag="lzNngc9L1LtcykWK3lM5" version="23.1.5" type="device" pages="3">
  <diagram name="README" id="lyyAExfp4SkQCK4VVHYF">
    <mxGraphModel dx="1012" dy="659" grid="1" gridSize="10" guides="1" tooltips="1" connect="1" arrows="1" fold="1" page="1" pageScale="1" pageWidth="850" pageHeight="1100" math="0" shadow="0">
      <root>
        <mxCell id="0" />
        <mxCell id="1" parent="0" />
        <mxCell id="1wF9nVpsUf9EVKvvm885-2" value="&lt;h1&gt;README&lt;/h1&gt;&lt;p&gt;在爬虫项目中, 为了省钱, 我做了两个重要决定:&lt;/p&gt;&lt;p&gt;&lt;/p&gt;&lt;ol&gt;&lt;li&gt;我决定把整个 Git repo 开源, 这样就能免费使用 GitHub Action, 让 CI Job 不仅仅是做单元测试, 而是去运行我的爬虫程序.&amp;nbsp;&lt;/li&gt;&lt;li&gt;使用 sqlite 作为爬虫数据库而不是 DynamoDB 或 RDS.&lt;/li&gt;&lt;/ol&gt;&lt;span style=&quot;background-color: initial;&quot;&gt;当然, 把 GitHub Action 当成一个 Batch Job 容器应用, 或是 AWS Lambda 定时任务使用的时候还有很多细节问题. 例如如何防止多个 CI Job 同时对同一个任务进行写操作 (并发冲突控制), 如何让每个 CI 任务运行的时间不要太长. 当任务出现死锁 (由于程序 bug 或是目标网站挂了导致任务无法进行下去) 时如何防止无限重试.&lt;/span&gt;&lt;br&gt;&lt;p&gt;&lt;/p&gt;&lt;p&gt;还有, sqlite 不是一个支持网络的数据库, 而且它不支持多个 worker 同时对一个数据库进行写操作. 那么 sqlite 数据库文件应该如何保存也是一个问题.&lt;/p&gt;&lt;p&gt;对于以上这些问题, 这个 Diagram 给出了我的详细解决方案, 以及架构设计.&lt;/p&gt;" style="text;html=1;spacing=5;spacingTop=-20;whiteSpace=wrap;overflow=hidden;rounded=0;strokeColor=default;" vertex="1" parent="1">
          <mxGeometry x="80" y="120" width="680" height="320" as="geometry" />
        </mxCell>
      </root>
    </mxGraphModel>
  </diagram>
  <diagram id="H0vgQcq-DBLnavE36G5J" name="GitHub Action">
    <mxGraphModel dx="1012" dy="659" grid="1" gridSize="10" guides="1" tooltips="1" connect="1" arrows="1" fold="1" page="1" pageScale="1" pageWidth="850" pageHeight="1100" math="0" shadow="0">
      <root>
        <mxCell id="0" />
        <mxCell id="1" parent="0" />
      </root>
    </mxGraphModel>
  </diagram>
  <diagram id="K0TGMvfE3cDlrgolIEqD" name="Sqlite">
    <mxGraphModel dx="1012" dy="659" grid="1" gridSize="10" guides="1" tooltips="1" connect="1" arrows="1" fold="1" page="1" pageScale="1" pageWidth="850" pageHeight="1100" math="0" shadow="0">
      <root>
        <mxCell id="0" />
        <mxCell id="1" parent="0" />
      </root>
    </mxGraphModel>
  </diagram>
</mxfile>
